<?xml version="1.0" standalone="no"?><!DOCTYPE svg PUBLIC "-//W3C//DTD SVG 1.1//EN" "http://www.w3.org/Graphics/SVG/1.1/DTD/svg11.dtd"><svg t="1586886968866" class="icon" viewBox="0 0 1024 1024" version="1.1" xmlns="http://www.w3.org/2000/svg" p-id="2140" xmlns:xlink="http://www.w3.org/1999/xlink" width="200" height="200"><defs><style type="text/css"></style></defs><path d="M512 65C265.146 65 65 265.146 65 512c0 246.84 200.146 447 447 447 246.854 0 447-200.16 447-447C959 265.146 758.854 65 512 65zM512 929.2C281.952 929.2 94.8 742.048 94.8 512S281.952 94.8 512 94.8 929.2 281.952 929.2 512 742.048 929.2 512 929.2z" p-id="2141" fill="#ff7832"></path><path d="M583.677 575.602c-9.414 0.379-17.242 2.445-23.514 4.089-12.048 3.187-21.564 5.704-57.185-61.535l-4.264-8.09c-35.067-66.178-27.064-74.181-24.052-77.207 1.615-1.615 3.39-3.128 5.224-4.715 2.75-2.4 5.587-4.903 8.396-7.697 0.015 0 0.015 0 0.015 0 2.808-2.822 5.573-5.922 8.177-9.458 18.495-25.013 7.77-69.756-0.276-94.187-8.134-24.736-21.986-55.497-41.833-61.623-12.703-3.885-52.252-7.348-82.532 22.918-11.495 11.51-20.182 26.555-25.769 44.729-22.641 73.656 16.82 163.828 58.407 242.314 41.615 78.517 94.1 161.819 167.653 184.402 50.769 15.628 82.242-5.922 96.473-20.153 11.393-11.393 18.086-24.081 20.356-31.458 4.889-15.904-4.308-39.156-27.37-69.103C645.853 608.414 614.801 574.336 583.677 575.602zM667.592 691.354c-1.324 4.307-6.359 13.794-14.799 22.233-8.687 8.687-23.834 19.062-46.605 19.062-8.629 0-17.883-1.514-27.486-4.467-65.799-20.211-115.024-99.048-154.486-173.519-39.447-74.427-77.032-159.418-56.792-225.275 4.496-14.623 11.306-26.569 20.226-35.504 15.599-15.599 34.034-18.857 46.737-18.857 6.65 0 11.583 0.96 13.445 1.527 4.423 1.368 15.889 13.023 27.137 47.232 11.059 33.583 12.412 61.913 3.536 73.918-1.935 2.634-3.987 4.903-6.053 6.97-2.357 2.328-4.845 4.525-7.261 6.635-2.474 2.139-4.481 3.899-6.33 5.748-16.952 17.039-11.874 43.129 20.109 103.471l4.234 8.047c30.353 57.286 46.606 74.747 69.61 74.747 5.413 0 9.837-1.164 13.066-2.022 5.82-1.528 11.758-3.085 18.698-3.361l0.015 0c15.715 0 38.123 17.054 59.279 44.525C670.793 677.414 667.999 690.044 667.592 691.354z" p-id="2142" fill="#ff7832"></path></svg>